<svg version="1.1" xmlns="http://www.w3.org/2000/svg" xmlns:xlink="http://www.w3.org/1999/xlink" width="62.44283" height="74.96791" viewBox="0,0,62.44283,74.96791"><g transform="translate(-210.94872,-142.03051)"><g data-paper-data="{&quot;isPaintingLayer&quot;:true}" stroke-linejoin="miter" stroke-miterlimit="10" stroke-dasharray="" stroke-dashoffset="0" style="mix-blend-mode: normal"><path d="M264.9827,166.46787l-1.36835,1.17816l-3.53918,-4.11051l1.36972,-1.17934l3.53801,4.10914l4.10914,-3.53801l1.17934,1.36972l-4.11051,3.53918zM268.93852,182.13959l-4.11051,3.53918l-1.17933,-1.36971l-1.36971,1.17933l-3.53801,-4.10914l1.36971,-1.17933l-1.17816,-1.36835l1.37109,-1.18052l-1.17933,-1.36971l1.36971,-1.17933l-1.17933,-1.36971l2.73943,-2.35867l-1.17934,-1.36972l1.36971,-1.17933l1.17934,1.36972l1.36971,-1.17933l1.17933,1.36971l1.36972,-1.17934l2.35749,2.73806l-1.36972,1.17934l1.17933,1.36971l-1.36971,1.17933l1.17933,1.36971l-1.36971,1.17933l1.17934,1.36972l-1.36972,1.17934zM270.46262,161.74818l-1.36971,1.17933l-1.18051,-1.37108l-1.37109,1.18052l-1.17933,-1.36971l-1.36971,1.17933l-1.17934,-1.36972l-1.36971,1.17933l-1.17933,-1.36971l1.36971,-1.17933l-1.17815,-1.36834l5.48022,-4.71852l1.17815,1.36834l1.36972,-1.17934l2.35867,2.73943l-2.73943,2.35867zM272.21221,155.47056l1.17933,1.36971l-1.36971,1.17933l-1.17933,-1.36971z" fill="#575e75" fill-rule="evenodd" stroke="none" stroke-width="1" stroke-linecap="butt"/><g data-paper-data="{&quot;index&quot;:null}" fill="#949494" fill-rule="nonzero" stroke="#000000" stroke-width="2"><path d="M215.82474,179.42267c10.74117,-0.06885 7.24001,-0.23325 7.24001,-0.23325c0,0 5.00242,-3.25087 6.6278,-2.9405c3.12122,0.596 6.09658,-2.66377 7.77886,2.9894c0.7907,2.65709 0.61267,2.95203 0.96648,6.59672c0.51648,5.32044 0.7566,13.44454 -1.04569,18.83477c-2.4256,7.25441 -7.20167,11.09865 -7.20167,11.09865l-18.24183,0.21802c-0.0842,-13.00563 0.27392,-36.5969 0.27392,-36.5969c0,0 2.24139,0.04184 3.60212,0.03308z" stroke-linecap="butt"/><path d="" stroke-linecap="round"/><path d="M223.12525,186.72826c0,0 3.11779,0.51281 5.78238,2.15324c3.24758,1.99934 6.16789,5.44311 6.30116,8.77418c0.13219,3.30408 -0.67646,8.08355 -3.45338,11.01242c-3.42658,3.61409 -9.1053,5.03108 -10.76089,4.83995c-4.48955,-0.51829 -8.18307,-8.6525 -8.46709,-10.60669c-0.14421,-0.99224 -0.17953,-2.03248 -0.13527,-3.07727c0.11578,-0.8801 0.21601,-1.76071 0.26382,-2.62429c0.56446,-3.65974 1.8335,-6.90827 2.46016,-7.74856z" stroke-linecap="round"/><path d="M212.65598,197.1998c0.56446,-3.65974 1.8335,-6.90827 2.46016,-7.74856c1.76938,-2.37258 8.00911,-2.72298 8.00911,-2.72298" stroke-linecap="round"/><path d="" stroke-linecap="butt"/></g><path d="M243.53518,204.7057l-15.01749,2.64129c0,0 -5.4907,0.4759 -6.66758,-1.10029c-0.66813,-0.89481 -3.30734,-3.74281 -3.84604,-5.74896c-0.67455,-2.51215 1.44946,-4.71069 1.783,-5.86174c0.14563,-0.50258 4.19789,-2.12411 4.19789,-2.12411c0,0 3.43296,-0.19655 5.70546,-0.32666c3.3728,-0.19311 12.56801,-0.71958 12.56801,-0.71958z" data-paper-data="{&quot;index&quot;:null}" fill="#949494" fill-rule="nonzero" stroke="#000000" stroke-width="2.5" stroke-linecap="butt"/><path d="" data-paper-data="{&quot;index&quot;:null}" fill="#949494" fill-rule="nonzero" stroke="#000000" stroke-width="2.5" stroke-linecap="butt"/><g fill-rule="nonzero"><path d="M248.22247,193.63661l-5.04898,3.12562l-2.62553,-4.24114l5.04898,-3.12562z" fill="#000000" stroke="none" stroke-width="0" stroke-linecap="butt"/><path d="M269.06982,172.20469c0,0 1.26618,-0.07091 1.33302,0.96395c0.17516,2.71173 -0.24331,15.90701 -0.24331,15.90701c0,0 -4.2593,2.89634 -6.55184,4.45526c-2.53245,1.72208 -7.99492,5.43656 -7.99492,5.43656c0,0 -2.14038,-7.02923 -3.26292,-9.76012c-0.4355,-1.05947 8.78533,-7.96284 8.75118,-8.75459c-0.03549,-0.82297 2.83745,1.61732 3.64395,1.54785c0.91061,-0.07842 -0.22981,-2.63491 -0.22669,-3.17149c0.00877,-1.51187 0.49986,-4.27264 0.49986,-4.27264l4.05167,-2.35178z" fill="#949494" stroke="#000000" stroke-width="2.5" stroke-linecap="butt"/><path d="M254.65303,200.62464l-8.51771,-5.75016l-0.56413,-2.92793l0.85028,-2.43739l2.36658,-1.50766l3.32393,0.25683z" fill="#242424" stroke="#000000" stroke-width="2.5" stroke-linecap="butt"/><path d="M253.26788,193.72822l-0.96112,1.89467l-2.14184,0.70016" fill="none" stroke="#000000" stroke-width="2.5" stroke-linecap="round"/><path d="M264.14408,181.91485l5.6895,1.93326" fill="none" stroke="#000000" stroke-width="2.5" stroke-linecap="round"/><path d="M270.4835,188.28207c0,0 -3.30852,1.47886 -4.86429,2.70301c-2.36896,1.86401 -8.96228,6.72014 -8.96228,6.72014l-4.48716,-9.15206l3.01526,-1.34278l6.41922,-5.14748z" fill="#6e0000" stroke="none" stroke-width="NaN" stroke-linecap="butt"/><path d="M259.68685,195.23007l-3.21662,2.23949l-3.91902,-8.9664l3.21154,-1.36451z" fill="#e30000" stroke="none" stroke-width="NaN" stroke-linecap="butt"/><path d="M269.70414,188.0079l-10.22806,-3.80943l2.01303,-2.23835l4.28203,-0.17337l-0.26143,-3.07121l0.71894,-3.39147l1.01077,-0.90921l2.42608,-1.28244z" fill="#e30000" stroke="none" stroke-width="0" stroke-linecap="butt"/></g><path d="M230.01248,186.30246c-3.81575,-2.46488 -5.47012,-7.49986 -3.69514,-11.24596c1.77499,-3.7461 6.30718,-4.78473 10.12293,-2.31986c3.81575,2.46488 5.47012,7.49986 3.69514,11.24596c-1.77499,3.7461 -6.30718,4.78473 -10.12293,2.31986z" fill="none" fill-rule="nonzero" stroke="#b90000" stroke-width="2.5" stroke-linecap="butt"/><path d="M227.89919,176.05764c0,0 0.38572,-1.48831 0.02088,-2.61271c-0.32634,-1.00569 -2.10731,-3.81738 -2.10731,-3.81738c0,0 -4.80181,-3.4026 -4.45048,-6.75239c0.03988,-0.38025 1.55492,-8.65615 6.39215,-13.30662c3.45744,-3.32395 10.46163,-3.61916 11.36288,-3.24656c0.69665,0.28802 5.09114,0.76773 9.14907,2.61307c5.71877,2.6006 11.008,6.50669 11.008,6.50669l-2.11548,13.60073l-20.88773,-0.2815l0.65373,7.36877z" fill="#949494" fill-rule="nonzero" stroke="#000000" stroke-width="2.5" stroke-linecap="butt"/><path d="M258.40975,162.76199l-13.04265,-2.71708l-3.29869,-3.35183l-3.24556,-10.00235l11.13491,3.65197l8.74834,5.05811z" fill="#000000" fill-rule="nonzero" stroke="#000000" stroke-width="2.5" stroke-linecap="round"/><path d="M242.76769,158.3614l-1.66263,-0.01328" fill="none" fill-rule="nonzero" stroke="#000000" stroke-width="2.5" stroke-linecap="round"/><path d="M240.136,160.71573l2.37329,0.2565" fill="none" fill-rule="nonzero" stroke="#000000" stroke-width="2.5" stroke-linecap="round"/><path d="M240.82768,163.33414l-1.42322,-0.24891" fill="none" fill-rule="nonzero" stroke="#000000" stroke-width="2.5" stroke-linecap="round"/><path d="M255.50563,169.02617c0,0 -12.48808,-0.49576 -18.92009,0.01613c-1.58255,0.12595 -0.22818,1.97755 -1.21403,1.98057c-8.73479,0.02681 -9.62276,-2.02785 -10.42246,-3.02569c-1.98624,-2.47836 -4.15225,-5.78591 -4.04059,-6.36903c0.14359,-0.74982 1.88895,-2.49851 1.88895,-2.49851l3.91187,1.56639l5.44774,1.9438l5.69096,1.23314l9.97388,0.31723l8.04147,4.33986" fill="#373737" fill-rule="nonzero" stroke="#000000" stroke-width="2.5" stroke-linecap="round"/><path d="M254.06804,173.03857l-1.36287,2.16498l-12.14887,-2.22737l-2.48429,-0.93844l-0.50618,-2.50766l0.80994,-1.78338l1.42517,-1.18763l1.31613,0.72427l0.91116,1.61596l0.72035,1.33949z" fill="#000000" fill-rule="nonzero" stroke="#000000" stroke-width="2.5" stroke-linecap="round"/><path d="M231.9484,174.66481l0.2584,-2.61081" fill="none" fill-rule="nonzero" stroke="#000000" stroke-width="2.5" stroke-linecap="round"/><path d="M236.71775,172.32757l-8.54497,-0.78088" fill="none" fill-rule="nonzero" stroke="#000000" stroke-width="2.5" stroke-linecap="round"/><path d="M231.43321,149.95718l-1.20467,2.12818l0.45795,2.14147l-3.54759,-1.92862l0.27358,-4.51096l3.35563,-3.77373l1.40993,1.91154l0.21095,3.32716z" fill="#151515" fill-rule="nonzero" stroke="#000000" stroke-width="2.5" stroke-linecap="round"/><path d="M232.11634,153.64636l-3.32906,0.44847l-1.63606,-3.33855l0.96146,-1.41752l2.39226,-2.11869l1.90205,-0.22234l1.18,0.95956l1.1781,1.19708l0.45416,2.6165z" fill="none" fill-rule="nonzero" stroke="#000000" stroke-width="2.5" stroke-linecap="round"/><path d="M249.17763,152.77098c2.56247,0.77602 3.1525,2.28665 2.72769,4.09277c-0.42481,1.80612 -2.33479,2.90204 -4.26607,2.44778c-1.93127,-0.45425 -3.1525,-2.28665 -2.72769,-4.09277c0.42481,-1.80612 1.62658,-3.24712 4.26607,-2.44778z" fill="#54ff00" fill-rule="nonzero" stroke="none" stroke-width="0" stroke-linecap="butt"/><path d="M241.08666,153.37681c-0.99586,0.09094 -1.08681,-0.90492 -1.08681,-0.90492l-0.00752,-1.38223c0.63529,-1.49898 1.20468,-2.6476 2.43762,-3.72898c0,0 0.76028,-0.64959 1.40987,0.11069c0.64959,0.76028 -0.11069,1.40987 -0.11069,1.40987c-1.0138,0.8355 -1.39125,1.79402 -1.89477,2.98744l0.15718,0.42134c0,0 0.09094,0.99586 -0.90492,1.08681z" fill="#54ff00" fill-rule="nonzero" stroke="none" stroke-width="0.5" stroke-linecap="butt"/></g></g></svg>